
<svg version="1.0" xmlns="http://www.w3.org/2000/svg"
 width="512.000000pt" height="512.000000pt" viewBox="0 0 512.000000 512.000000"
 preserveAspectRatio="xMidYMid meet">

<g transform="translate(0.000000,512.000000) scale(0.100000,-0.100000)"
fill="#000000" stroke="none">
<path d="M2583 4675 c-380 -69 -694 -340 -819 -709 -78 -227 -72 -497 16 -723
55 -144 124 -247 245 -368 123 -123 220 -187 367 -242 143 -54 215 -66 388
-66 136 0 167 3 255 26 310 83 558 286 697 572 277 572 -5 1251 -610 1469
-150 54 -375 71 -539 41z m240 -636 c46 -21 57 -56 57 -188 l0 -121 120 0 c66
0 130 -5 144 -11 60 -28 71 -122 20 -170 -24 -22 -34 -24 -154 -27 l-128 -4
-4 -128 c-3 -120 -5 -130 -27 -154 -48 -51 -142 -40 -170 20 -6 14 -11 78 -11
144 l0 120 -121 0 c-95 0 -127 4 -149 17 -55 32 -67 112 -26 160 24 28 27 28
158 33 l133 5 5 133 c5 131 5 134 33 158 31 26 80 32 120 13z"/>
<path d="M390 4473 c-81 -31 -90 -157 -14 -192 16 -7 112 -11 275 -11 269 0
303 -5 332 -52 9 -12 119 -481 247 -1041 127 -559 233 -1023 236 -1031 4 -9
-9 -15 -44 -19 -110 -13 -230 -74 -312 -159 -220 -230 -191 -599 64 -792 104
-79 195 -106 359 -106 64 0 117 -4 117 -9 0 -5 -10 -30 -22 -57 -30 -65 -32
-213 -5 -291 28 -79 98 -167 169 -214 86 -55 151 -72 257 -67 159 7 287 92
358 236 33 66 38 85 41 166 4 88 -4 131 -43 219 -7 16 15 17 369 17 l375 0
-19 -45 c-68 -159 -37 -335 81 -460 87 -92 185 -135 309 -135 124 0 222 43
309 135 118 124 149 302 81 460 l-19 45 153 0 c172 0 194 7 216 74 14 42 -6
97 -42 118 -19 11 -282 14 -1413 18 l-1390 5 -50 23 c-95 44 -164 131 -185
234 -28 140 50 288 185 350 l50 23 1235 5 1235 5 53 24 c32 14 71 44 100 76
43 47 77 120 371 791 349 798 350 800 317 889 -21 55 -82 110 -136 125 -26 7
-106 10 -205 8 -157 -3 -164 -4 -189 -27 -51 -48 -40 -142 20 -170 15 -6 85
-11 171 -11 112 0 144 -3 140 -12 -3 -7 -145 -332 -316 -722 -197 -451 -320
-719 -336 -735 l-26 -26 -1057 3 c-672 2 -1064 7 -1077 13 -12 6 -27 19 -33
30 -7 11 -116 475 -243 1032 -126 557 -236 1033 -245 1060 -21 64 -99 148
-166 178 -51 23 -61 24 -338 26 -157 1 -292 -1 -300 -4z m1752 -3442 c52 -33
98 -113 98 -169 0 -156 -159 -266 -295 -203 -134 61 -173 220 -79 329 46 54
86 71 165 72 55 0 72 -5 111 -29z m1476 10 c72 -37 112 -104 112 -188 -1 -183
-215 -279 -350 -157 -106 96 -88 272 35 341 52 30 149 31 203 4z"/>
</g>
</svg>
