<?xml version="1.0" standalone="no"?>
<!DOCTYPE svg PUBLIC "-//W3C//DTD SVG 20010904//EN"
 "http://www.w3.org/TR/2001/REC-SVG-20010904/DTD/svg10.dtd">
<svg version="1.0" xmlns="http://www.w3.org/2000/svg"
 width="512.000000pt" height="512.000000pt" viewBox="0 0 512.000000 512.000000"
 preserveAspectRatio="xMidYMid meet">

<g transform="translate(0.000000,512.000000) scale(0.100000,-0.100000)"
fill="#000000" stroke="none">
<path d="M2115 5009 c-229 -19 -448 -98 -645 -232 -97 -66 -281 -251 -345
-347 -112 -169 -192 -371 -218 -553 l-12 -88 -81 -28 c-514 -178 -854 -706
-803 -1248 45 -483 356 -882 813 -1042 176 -62 217 -66 776 -66 502 0 505 0
540 22 99 61 99 205 0 266 -34 22 -43 22 -565 28 -590 6 -572 4 -732 79 -104
49 -161 88 -247 169 -116 112 -187 227 -242 391 -26 79 -28 96 -28 250 -1 187
9 239 74 376 123 264 335 440 617 509 158 39 177 62 187 226 9 137 42 271 94
383 55 117 103 187 195 283 129 135 274 222 462 280 83 25 103 27 270 27 158
1 190 -2 265 -22 201 -55 394 -177 531 -337 114 -134 149 -142 294 -69 67 33
113 49 168 57 319 46 596 -241 537 -556 -24 -129 -24 -152 0 -194 27 -49 37
-55 170 -102 321 -113 538 -365 601 -699 15 -81 6 -307 -16 -387 -83 -300
-324 -545 -627 -637 -70 -21 -93 -22 -603 -27 -522 -6 -530 -6 -565 -28 -99
-61 -99 -205 0 -266 34 -22 44 -22 445 -25 468 -4 645 6 785 43 214 58 371
149 536 310 246 241 364 519 365 855 0 142 -10 220 -47 346 -92 321 -325 598
-626 748 l-95 47 -6 122 c-14 311 -179 560 -458 691 -184 87 -389 99 -585 32
l-66 -22 -62 59 c-282 273 -664 409 -1051 376z"/>
<path d="M2495 3169 c-31 -17 -895 -881 -911 -911 -21 -40 -18 -114 6 -154 22
-34 90 -74 128 -74 59 0 102 36 390 323 l292 292 0 -1195 c0 -753 4 -1208 10
-1229 22 -79 112 -132 188 -112 46 13 99 65 112 112 6 21 10 476 10 1229 l0
1195 293 -292 c287 -287 330 -323 389 -323 38 0 106 40 128 74 24 40 27 114 6
154 -18 33 -882 895 -913 911 -28 14 -102 14 -128 0z"/>
</g>
</svg>
